<svg width="36" height="36" viewBox="0 0 36 36" fill="none" xmlns="http://www.w3.org/2000/svg">
<path d="M4.09693 23.9378C4.09693 18.7287 4.92259 14.3047 6.57913 10.6711C8.23567 7.03752 10.4618 4.31629 13.2576 2.50744C13.7017 2.22099 14.1564 1.95577 14.611 1.71176C15.4994 1.24496 15.0865 -0.123608 14.0989 0.00900513C14.0884 0.00900513 14.078 0.0143084 14.0675 0.0143084C7.20099 0.979734 0 7.75893 0 17.8482C0 21.0256 0.799532 24.0173 2.21047 26.6219C2.75394 27.6297 4.27461 27.1841 4.18054 26.0384C4.12306 25.37 4.09693 24.6698 4.09693 23.9378Z" fill="white"/>
<path d="M20.3122 16.9569C20.2286 17.4609 20.6676 17.9011 21.1588 17.8004C25.6633 16.9198 27.9208 14.2357 27.9208 9.76399C27.9208 8.07184 27.3721 6.68736 26.2695 5.62645C25.1669 4.56024 23.4685 4.02979 21.1692 4.02979C18.5616 4.02979 16.2937 4.8626 14.3602 6.53353C12.4267 8.20445 10.9321 10.5172 9.88177 13.4825C8.8314 16.4477 8.30884 19.832 8.30884 23.63C8.30884 25.2214 8.46561 26.6324 8.78437 27.8684C9.09791 29.099 9.50552 30.0591 9.99674 30.7381C10.4879 31.4171 10.9635 31.7566 11.4181 31.7566C12.0504 31.7566 12.5312 30.8707 12.8604 29.099L13.9839 22.5585C14.0519 22.1554 13.7801 21.7682 13.3777 21.7045C12.9179 21.6355 12.7298 21.609 12.8186 21.6249C12.0609 21.4976 11.5644 21.2589 11.3397 20.9141C11.1098 20.5693 11.0001 20.1237 11.0001 19.588C11.0001 19.0257 11.1568 18.5748 11.4756 18.2406C11.7891 17.9065 12.2281 17.742 12.782 17.742C13.0329 17.742 13.2262 17.7526 13.3516 17.7791C13.6181 17.8216 13.8533 17.864 14.0675 17.8905C14.449 17.9436 14.8044 17.6784 14.8723 17.2911C15.1911 15.3762 15.6248 12.9202 16.163 9.92312C16.3146 9.05318 16.6647 8.42725 17.2082 8.05593C17.7516 7.68461 18.3892 7.49895 19.126 7.49895C19.9621 7.49895 20.5631 7.65809 20.9289 7.98166C21.2947 8.30524 21.4776 8.80917 21.4776 9.50407C21.4776 9.91252 21.4514 10.2467 21.4044 10.5066L20.3122 16.9569Z" fill="white"/>
<path d="M34.9965 11.8167C34.6829 10.9097 33.3974 11.0157 33.1989 11.9546C32.9585 13.1004 32.5613 14.3576 31.9029 15.4238C30.7794 17.238 29.1699 18.7338 27.0482 19.8902C25.2297 20.8769 23.1185 21.5187 20.7095 21.8105C19.9674 21.9007 19.3665 22.4629 19.2358 23.2109C19.2358 23.2109 17.6734 31.7512 17.5009 32.6105C17.1194 34.4565 18.4154 36.2123 20.2601 35.9789C20.4848 35.9524 20.7147 35.9152 20.9394 35.8781C28.8929 34.5732 35.0801 27.9107 35.9005 19.7735C36.1879 16.9674 35.8431 14.2727 34.9965 11.8167Z" fill="white"/>
</svg>
